<svg width="16" height="16" viewBox="0 0 16 16" fill="none" xmlns="http://www.w3.org/2000/svg">
<g id="Icon">
<path id="Vector (Stroke)" fill-rule="evenodd" clip-rule="evenodd" d="M8 1C8.27614 1 8.5 1.22386 8.5 1.5V14.5C8.5 14.7761 8.27614 15 8 15C7.72386 15 7.5 14.7761 7.5 14.5V1.5C7.5 1.22386 7.72386 1 8 1Z" fill="#FAFAFA"/>
<path id="Vector (Stroke)_2" fill-rule="evenodd" clip-rule="evenodd" d="M4.62868 3.37868C5.19129 2.81607 5.95435 2.5 6.75 2.5H9C9.39397 2.5 9.78407 2.5776 10.1481 2.72836C10.512 2.87913 10.8427 3.1001 11.1213 3.37868C11.3999 3.65726 11.6209 3.98797 11.7716 4.35195C11.9224 4.71593 12 5.10603 12 5.5C12 5.77614 11.7761 6 11.5 6C11.2239 6 11 5.77614 11 5.5C11 5.23736 10.9483 4.97728 10.8478 4.73463C10.7473 4.49198 10.5999 4.2715 10.4142 4.08579C10.2285 3.90007 10.008 3.75275 9.76537 3.65224C9.52272 3.55173 9.26264 3.5 9 3.5H6.75C6.21957 3.5 5.71086 3.71071 5.33579 4.08579C4.96071 4.46086 4.75 4.96957 4.75 5.5C4.75 6.03043 4.96071 6.53914 5.33579 6.91421C5.71086 7.28929 6.21957 7.5 6.75 7.5H9.5C10.2956 7.5 11.0587 7.81607 11.6213 8.37868C12.1839 8.94129 12.5 9.70435 12.5 10.5C12.5 11.2956 12.1839 12.0587 11.6213 12.6213C11.0587 13.1839 10.2956 13.5 9.5 13.5H6.5C5.70435 13.5 4.94129 13.1839 4.37868 12.6213C3.81607 12.0587 3.5 11.2956 3.5 10.5C3.5 10.2239 3.72386 10 4 10C4.27614 10 4.5 10.2239 4.5 10.5C4.5 11.0304 4.71071 11.5391 5.08579 11.9142C5.46086 12.2893 5.96957 12.5 6.5 12.5H9.5C10.0304 12.5 10.5391 12.2893 10.9142 11.9142C11.2893 11.5391 11.5 11.0304 11.5 10.5C11.5 9.96957 11.2893 9.46086 10.9142 9.08579C10.5391 8.71071 10.0304 8.5 9.5 8.5H6.75C5.95435 8.5 5.19129 8.18393 4.62868 7.62132C4.06607 7.05871 3.75 6.29565 3.75 5.5C3.75 4.70435 4.06607 3.94129 4.62868 3.37868Z" fill="#FAFAFA"/>
</g>
</svg>
